%TF.GenerationSoftware,KiCad,Pcbnew,10.0.5*%
%TF.CreationDate,2026-10-09T15:17:08+05:30*%
%TF.ProjectId,UniQ_1S_LiIon_Protection_PCB,556e6951-5f31-4535-9f4c-69496f6e5f50,rev?*%
%TF.SameCoordinates,Original*%
%TF.FileFunction,Copper,L1,Top*%
%TF.FilePolarity,Positive*%
%FSLAX46Y46*%
G04 Gerber Fmt 4.6, Leading zero omitted, Abs format (unit mm)*
G04 Created by KiCad (PCBNEW 10.0.5) date 2026-10-09 15:17:08*
%MOMM*%
%LPD*%
G01*
G04 APERTURE LIST*
G04 Aperture macros list*
%AMRoundRect*
0 Rectangle with rounded corners*
0 $1 Rounding radius*
0 $2 $3 $4 $5 $6 $7 $8 $9 X,Y pos of 4 corners*
0 Add a 4 corners polygon primitive as box body*
4,1,4,$2,$3,$4,$5,$6,$7,$8,$9,$2,$3,0*
0 Add four circle primitives for the rounded corners*
1,1,$1+$1,$2,$3*
1,1,$1+$1,$4,$5*
1,1,$1+$1,$6,$7*
1,1,$1+$1,$8,$9*
0 Add four rect primitives between the rounded corners*
20,1,$1+$1,$2,$3,$4,$5,0*
20,1,$1+$1,$4,$5,$6,$7,0*
20,1,$1+$1,$6,$7,$8,$9,0*
20,1,$1+$1,$8,$9,$2,$3,0*%
G04 Aperture macros list end*
%TA.AperFunction,ComponentPad*%
%ADD10RoundRect,0.250000X-0.350000X-0.625000X0.350000X-0.625000X0.350000X0.625000X-0.350000X0.625000X0*%
%TD*%
%TA.AperFunction,ComponentPad*%
%ADD11O,1.200000X1.750000*%
%TD*%
%TA.AperFunction,SMDPad,CuDef*%
%ADD12RoundRect,0.250000X-0.250000X-0.475000X0.250000X-0.475000X0.250000X0.475000X-0.250000X0.475000X0*%
%TD*%
%TA.AperFunction,SMDPad,CuDef*%
%ADD13RoundRect,0.250000X-0.262500X-0.450000X0.262500X-0.450000X0.262500X0.450000X-0.262500X0.450000X0*%
%TD*%
%TA.AperFunction,SMDPad,CuDef*%
%ADD14RoundRect,0.150000X-0.587500X-0.150000X0.587500X-0.150000X0.587500X0.150000X-0.587500X0.150000X0*%
%TD*%
%TA.AperFunction,SMDPad,CuDef*%
%ADD15RoundRect,0.150000X-0.512500X-0.150000X0.512500X-0.150000X0.512500X0.150000X-0.512500X0.150000X0*%
%TD*%
%TA.AperFunction,ViaPad*%
%ADD16C,0.600000*%
%TD*%
%TA.AperFunction,Conductor*%
%ADD17C,0.200000*%
%TD*%
G04 APERTURE END LIST*
D10*
%TO.P,BT1,1,+_1*%
%TO.N,/P+*%
X103000000Y-71000000D03*
D11*
%TO.P,BT1,2,-_2*%
%TO.N,/B-*%
X105000000Y-71000000D03*
%TD*%
D12*
%TO.P,C1,1*%
%TO.N,Net-(U1-VCC)*%
X123100000Y-83000000D03*
%TO.P,C1,2*%
%TO.N,/B-*%
X125000000Y-83000000D03*
%TD*%
D13*
%TO.P,R2,1*%
%TO.N,Net-(U1-CS)*%
X116175000Y-85000000D03*
%TO.P,R2,2*%
%TO.N,/P-*%
X118000000Y-85000000D03*
%TD*%
D14*
%TO.P,Q1,1,G_1*%
%TO.N,Net-(Q1-G)*%
X112062500Y-72050000D03*
%TO.P,Q1,2,S_2*%
%TO.N,/B-*%
X112062500Y-73950000D03*
%TO.P,Q1,3,D_3*%
%TO.N,Net-(Q1-D)*%
X113937500Y-73000000D03*
%TD*%
D13*
%TO.P,R1,1*%
%TO.N,/P+*%
X109087500Y-85000000D03*
%TO.P,R1,2*%
%TO.N,Net-(U1-VCC)*%
X110912500Y-85000000D03*
%TD*%
D10*
%TO.P,J1,1,Pin_1_1*%
%TO.N,/P+*%
X130000000Y-73000000D03*
D11*
%TO.P,J1,2,Pin_2_2*%
%TO.N,/P-*%
X132000000Y-73000000D03*
%TD*%
D14*
%TO.P,Q2,1,G_1*%
%TO.N,Net-(Q2-G)*%
X122125000Y-72050000D03*
%TO.P,Q2,2,S_2*%
%TO.N,/P-*%
X122125000Y-73950000D03*
%TO.P,Q2,3,D_3*%
%TO.N,Net-(Q1-D)*%
X124000000Y-73000000D03*
%TD*%
D15*
%TO.P,U1,1,OD_1*%
%TO.N,Net-(Q1-G)*%
X115725000Y-78100000D03*
%TO.P,U1,2,CS_2*%
%TO.N,Net-(U1-CS)*%
X115725000Y-79050000D03*
%TO.P,U1,3,OC_3*%
%TO.N,Net-(Q2-G)*%
X115725000Y-80000000D03*
%TO.P,U1,4,TD_4*%
%TO.N,unconnected-(U1-TD-Pad4)*%
X118000000Y-80000000D03*
%TO.P,U1,5,VCC_5*%
%TO.N,Net-(U1-VCC)*%
X118000000Y-79050000D03*
%TO.P,U1,6,GND_6*%
%TO.N,/B-*%
X118000000Y-78100000D03*
%TD*%
D16*
%TO.N,/B-*%
X120904000Y-77470000D03*
X128270000Y-79502000D03*
%TO.N,Net-(Q2-G)*%
X119123113Y-81531113D03*
X119634000Y-71120000D03*
%TD*%
%TO.N,/P+*%
D17*
X109087500Y-85000000D02*
X103000000Y-78912500D01*
X103000000Y-78912500D02*
X103000000Y-71000000D01*
X104461523Y-69425000D02*
X126425000Y-69425000D01*
X103000000Y-71000000D02*
X103000000Y-70886523D01*
X103000000Y-70886523D02*
X104461523Y-69425000D01*
X126425000Y-69425000D02*
X130000000Y-73000000D01*
%TO.N,/B-*%
X128270000Y-79730000D02*
X128270000Y-79502000D01*
X117856000Y-77724000D02*
X117283448Y-77724000D01*
X117283448Y-77724000D02*
X112209448Y-72650000D01*
X105000000Y-71000000D02*
X109112500Y-71000000D01*
X120274000Y-78100000D02*
X118000000Y-78100000D01*
X106650000Y-72650000D02*
X105000000Y-71000000D01*
X125000000Y-83000000D02*
X128270000Y-79730000D01*
X118000000Y-78100000D02*
X118000000Y-77868000D01*
X109112500Y-71000000D02*
X112062500Y-73950000D01*
X112209448Y-72650000D02*
X106650000Y-72650000D01*
X118000000Y-77868000D02*
X117856000Y-77724000D01*
X120904000Y-77470000D02*
X120274000Y-78100000D01*
%TO.N,Net-(U1-CS)*%
X114762500Y-83587500D02*
X116175000Y-85000000D01*
X115725000Y-79050000D02*
X115371948Y-79050000D01*
X114762500Y-79659448D02*
X114762500Y-83587500D01*
X115371948Y-79050000D02*
X114762500Y-79659448D01*
%TO.N,/P-*%
X121025000Y-81975000D02*
X124100000Y-81975000D01*
X124100000Y-81975000D02*
X132000000Y-74075000D01*
X118000000Y-85000000D02*
X121025000Y-81975000D01*
X122125000Y-73950000D02*
X122125000Y-80875000D01*
X122125000Y-80875000D02*
X118000000Y-85000000D01*
X132000000Y-74075000D02*
X132000000Y-73000000D01*
%TO.N,Net-(Q1-G)*%
X104627208Y-69825000D02*
X109837500Y-69825000D01*
X109837500Y-69825000D02*
X112062500Y-72050000D01*
X104100000Y-70352208D02*
X104627208Y-69825000D01*
X104100000Y-72059744D02*
X104100000Y-70352208D01*
X110140256Y-78100000D02*
X104100000Y-72059744D01*
X115725000Y-78100000D02*
X110140256Y-78100000D01*
%TO.N,Net-(Q1-D)*%
X113937500Y-73000000D02*
X124000000Y-73000000D01*
%TO.N,Net-(Q2-G)*%
X119634000Y-71120000D02*
X120564000Y-72050000D01*
X115725000Y-80000000D02*
X115814000Y-80000000D01*
X117256113Y-81531113D02*
X119123113Y-81531113D01*
X120564000Y-72050000D02*
X122125000Y-72050000D01*
X115814000Y-80000000D02*
X115824000Y-80010000D01*
X115725000Y-80000000D02*
X117256113Y-81531113D01*
%TO.N,Net-(U1-VCC)*%
X111912500Y-86000000D02*
X116672244Y-86000000D01*
X119927756Y-81575000D02*
X117187500Y-84315256D01*
X116672244Y-86000000D02*
X117187500Y-85484744D01*
X117187500Y-85484744D02*
X117187500Y-84315256D01*
X120100000Y-86000000D02*
X123100000Y-83000000D01*
X117502756Y-86000000D02*
X120100000Y-86000000D01*
X110912500Y-85000000D02*
X111912500Y-86000000D01*
X117187500Y-85684744D02*
X117502756Y-86000000D01*
X117187500Y-84315256D02*
X117187500Y-85684744D01*
X118662499Y-79050000D02*
X119927756Y-80315257D01*
X111342000Y-85000000D02*
X111506000Y-84836000D01*
X119927756Y-80315257D02*
X119927756Y-81575000D01*
X118000000Y-79050000D02*
X118662499Y-79050000D01*
X110912500Y-85000000D02*
X111342000Y-85000000D01*
%TD*%
M02*
