%TF.GenerationSoftware,KiCad,Pcbnew,10.0.5*%
%TF.CreationDate,2026-10-09T15:17:08+05:30*%
%TF.ProjectId,UniQ_1S_LiIon_Protection_PCB,556e6951-5f31-4535-9f4c-69496f6e5f50,rev?*%
%TF.SameCoordinates,Original*%
%TF.FileFunction,Legend,Top*%
%TF.FilePolarity,Positive*%
%FSLAX46Y46*%
G04 Gerber Fmt 4.6, Leading zero omitted, Abs format (unit mm)*
G04 Created by KiCad (PCBNEW 10.0.5) date 2026-10-09 15:17:08*
%MOMM*%
%LPD*%
G01*
G04 APERTURE LIST*
G04 Aperture macros list*
%AMRoundRect*
0 Rectangle with rounded corners*
0 $1 Rounding radius*
0 $2 $3 $4 $5 $6 $7 $8 $9 X,Y pos of 4 corners*
0 Add a 4 corners polygon primitive as box body*
4,1,4,$2,$3,$4,$5,$6,$7,$8,$9,$2,$3,0*
0 Add four circle primitives for the rounded corners*
1,1,$1+$1,$2,$3*
1,1,$1+$1,$4,$5*
1,1,$1+$1,$6,$7*
1,1,$1+$1,$8,$9*
0 Add four rect primitives between the rounded corners*
20,1,$1+$1,$2,$3,$4,$5,0*
20,1,$1+$1,$4,$5,$6,$7,0*
20,1,$1+$1,$6,$7,$8,$9,0*
20,1,$1+$1,$8,$9,$2,$3,0*%
G04 Aperture macros list end*
%ADD10C,0.150000*%
%ADD11C,0.120000*%
%ADD12RoundRect,0.250000X-0.350000X-0.625000X0.350000X-0.625000X0.350000X0.625000X-0.350000X0.625000X0*%
%ADD13O,1.200000X1.750000*%
%ADD14RoundRect,0.250000X-0.250000X-0.475000X0.250000X-0.475000X0.250000X0.475000X-0.250000X0.475000X0*%
%ADD15RoundRect,0.250000X-0.262500X-0.450000X0.262500X-0.450000X0.262500X0.450000X-0.262500X0.450000X0*%
%ADD16RoundRect,0.150000X-0.587500X-0.150000X0.587500X-0.150000X0.587500X0.150000X-0.587500X0.150000X0*%
%ADD17RoundRect,0.150000X-0.512500X-0.150000X0.512500X-0.150000X0.512500X0.150000X-0.512500X0.150000X0*%
G04 APERTURE END LIST*
D10*
X103214285Y-68031009D02*
X103357142Y-68078628D01*
X103357142Y-68078628D02*
X103404761Y-68126247D01*
X103404761Y-68126247D02*
X103452380Y-68221485D01*
X103452380Y-68221485D02*
X103452380Y-68364342D01*
X103452380Y-68364342D02*
X103404761Y-68459580D01*
X103404761Y-68459580D02*
X103357142Y-68507200D01*
X103357142Y-68507200D02*
X103261904Y-68554819D01*
X103261904Y-68554819D02*
X102880952Y-68554819D01*
X102880952Y-68554819D02*
X102880952Y-67554819D01*
X102880952Y-67554819D02*
X103214285Y-67554819D01*
X103214285Y-67554819D02*
X103309523Y-67602438D01*
X103309523Y-67602438D02*
X103357142Y-67650057D01*
X103357142Y-67650057D02*
X103404761Y-67745295D01*
X103404761Y-67745295D02*
X103404761Y-67840533D01*
X103404761Y-67840533D02*
X103357142Y-67935771D01*
X103357142Y-67935771D02*
X103309523Y-67983390D01*
X103309523Y-67983390D02*
X103214285Y-68031009D01*
X103214285Y-68031009D02*
X102880952Y-68031009D01*
X103738095Y-67554819D02*
X104309523Y-67554819D01*
X104023809Y-68554819D02*
X104023809Y-67554819D01*
X105166666Y-68554819D02*
X104595238Y-68554819D01*
X104880952Y-68554819D02*
X104880952Y-67554819D01*
X104880952Y-67554819D02*
X104785714Y-67697676D01*
X104785714Y-67697676D02*
X104690476Y-67792914D01*
X104690476Y-67792914D02*
X104595238Y-67840533D01*
X123883333Y-81679580D02*
X123835714Y-81727200D01*
X123835714Y-81727200D02*
X123692857Y-81774819D01*
X123692857Y-81774819D02*
X123597619Y-81774819D01*
X123597619Y-81774819D02*
X123454762Y-81727200D01*
X123454762Y-81727200D02*
X123359524Y-81631961D01*
X123359524Y-81631961D02*
X123311905Y-81536723D01*
X123311905Y-81536723D02*
X123264286Y-81346247D01*
X123264286Y-81346247D02*
X123264286Y-81203390D01*
X123264286Y-81203390D02*
X123311905Y-81012914D01*
X123311905Y-81012914D02*
X123359524Y-80917676D01*
X123359524Y-80917676D02*
X123454762Y-80822438D01*
X123454762Y-80822438D02*
X123597619Y-80774819D01*
X123597619Y-80774819D02*
X123692857Y-80774819D01*
X123692857Y-80774819D02*
X123835714Y-80822438D01*
X123835714Y-80822438D02*
X123883333Y-80870057D01*
X124835714Y-81774819D02*
X124264286Y-81774819D01*
X124550000Y-81774819D02*
X124550000Y-80774819D01*
X124550000Y-80774819D02*
X124454762Y-80917676D01*
X124454762Y-80917676D02*
X124359524Y-81012914D01*
X124359524Y-81012914D02*
X124264286Y-81060533D01*
X116920833Y-83804819D02*
X116587500Y-83328628D01*
X116349405Y-83804819D02*
X116349405Y-82804819D01*
X116349405Y-82804819D02*
X116730357Y-82804819D01*
X116730357Y-82804819D02*
X116825595Y-82852438D01*
X116825595Y-82852438D02*
X116873214Y-82900057D01*
X116873214Y-82900057D02*
X116920833Y-82995295D01*
X116920833Y-82995295D02*
X116920833Y-83138152D01*
X116920833Y-83138152D02*
X116873214Y-83233390D01*
X116873214Y-83233390D02*
X116825595Y-83281009D01*
X116825595Y-83281009D02*
X116730357Y-83328628D01*
X116730357Y-83328628D02*
X116349405Y-83328628D01*
X117301786Y-82900057D02*
X117349405Y-82852438D01*
X117349405Y-82852438D02*
X117444643Y-82804819D01*
X117444643Y-82804819D02*
X117682738Y-82804819D01*
X117682738Y-82804819D02*
X117777976Y-82852438D01*
X117777976Y-82852438D02*
X117825595Y-82900057D01*
X117825595Y-82900057D02*
X117873214Y-82995295D01*
X117873214Y-82995295D02*
X117873214Y-83090533D01*
X117873214Y-83090533D02*
X117825595Y-83233390D01*
X117825595Y-83233390D02*
X117254167Y-83804819D01*
X117254167Y-83804819D02*
X117873214Y-83804819D01*
X112904761Y-71150057D02*
X112809523Y-71102438D01*
X112809523Y-71102438D02*
X112714285Y-71007200D01*
X112714285Y-71007200D02*
X112571428Y-70864342D01*
X112571428Y-70864342D02*
X112476190Y-70816723D01*
X112476190Y-70816723D02*
X112380952Y-70816723D01*
X112428571Y-71054819D02*
X112333333Y-71007200D01*
X112333333Y-71007200D02*
X112238095Y-70911961D01*
X112238095Y-70911961D02*
X112190476Y-70721485D01*
X112190476Y-70721485D02*
X112190476Y-70388152D01*
X112190476Y-70388152D02*
X112238095Y-70197676D01*
X112238095Y-70197676D02*
X112333333Y-70102438D01*
X112333333Y-70102438D02*
X112428571Y-70054819D01*
X112428571Y-70054819D02*
X112619047Y-70054819D01*
X112619047Y-70054819D02*
X112714285Y-70102438D01*
X112714285Y-70102438D02*
X112809523Y-70197676D01*
X112809523Y-70197676D02*
X112857142Y-70388152D01*
X112857142Y-70388152D02*
X112857142Y-70721485D01*
X112857142Y-70721485D02*
X112809523Y-70911961D01*
X112809523Y-70911961D02*
X112714285Y-71007200D01*
X112714285Y-71007200D02*
X112619047Y-71054819D01*
X112619047Y-71054819D02*
X112428571Y-71054819D01*
X113809523Y-71054819D02*
X113238095Y-71054819D01*
X113523809Y-71054819D02*
X113523809Y-70054819D01*
X113523809Y-70054819D02*
X113428571Y-70197676D01*
X113428571Y-70197676D02*
X113333333Y-70292914D01*
X113333333Y-70292914D02*
X113238095Y-70340533D01*
X109833333Y-83804819D02*
X109500000Y-83328628D01*
X109261905Y-83804819D02*
X109261905Y-82804819D01*
X109261905Y-82804819D02*
X109642857Y-82804819D01*
X109642857Y-82804819D02*
X109738095Y-82852438D01*
X109738095Y-82852438D02*
X109785714Y-82900057D01*
X109785714Y-82900057D02*
X109833333Y-82995295D01*
X109833333Y-82995295D02*
X109833333Y-83138152D01*
X109833333Y-83138152D02*
X109785714Y-83233390D01*
X109785714Y-83233390D02*
X109738095Y-83281009D01*
X109738095Y-83281009D02*
X109642857Y-83328628D01*
X109642857Y-83328628D02*
X109261905Y-83328628D01*
X110785714Y-83804819D02*
X110214286Y-83804819D01*
X110500000Y-83804819D02*
X110500000Y-82804819D01*
X110500000Y-82804819D02*
X110404762Y-82947676D01*
X110404762Y-82947676D02*
X110309524Y-83042914D01*
X110309524Y-83042914D02*
X110214286Y-83090533D01*
X130666666Y-69554819D02*
X130666666Y-70269104D01*
X130666666Y-70269104D02*
X130619047Y-70411961D01*
X130619047Y-70411961D02*
X130523809Y-70507200D01*
X130523809Y-70507200D02*
X130380952Y-70554819D01*
X130380952Y-70554819D02*
X130285714Y-70554819D01*
X131666666Y-70554819D02*
X131095238Y-70554819D01*
X131380952Y-70554819D02*
X131380952Y-69554819D01*
X131380952Y-69554819D02*
X131285714Y-69697676D01*
X131285714Y-69697676D02*
X131190476Y-69792914D01*
X131190476Y-69792914D02*
X131095238Y-69840533D01*
X122967261Y-71150057D02*
X122872023Y-71102438D01*
X122872023Y-71102438D02*
X122776785Y-71007200D01*
X122776785Y-71007200D02*
X122633928Y-70864342D01*
X122633928Y-70864342D02*
X122538690Y-70816723D01*
X122538690Y-70816723D02*
X122443452Y-70816723D01*
X122491071Y-71054819D02*
X122395833Y-71007200D01*
X122395833Y-71007200D02*
X122300595Y-70911961D01*
X122300595Y-70911961D02*
X122252976Y-70721485D01*
X122252976Y-70721485D02*
X122252976Y-70388152D01*
X122252976Y-70388152D02*
X122300595Y-70197676D01*
X122300595Y-70197676D02*
X122395833Y-70102438D01*
X122395833Y-70102438D02*
X122491071Y-70054819D01*
X122491071Y-70054819D02*
X122681547Y-70054819D01*
X122681547Y-70054819D02*
X122776785Y-70102438D01*
X122776785Y-70102438D02*
X122872023Y-70197676D01*
X122872023Y-70197676D02*
X122919642Y-70388152D01*
X122919642Y-70388152D02*
X122919642Y-70721485D01*
X122919642Y-70721485D02*
X122872023Y-70911961D01*
X122872023Y-70911961D02*
X122776785Y-71007200D01*
X122776785Y-71007200D02*
X122681547Y-71054819D01*
X122681547Y-71054819D02*
X122491071Y-71054819D01*
X123300595Y-70150057D02*
X123348214Y-70102438D01*
X123348214Y-70102438D02*
X123443452Y-70054819D01*
X123443452Y-70054819D02*
X123681547Y-70054819D01*
X123681547Y-70054819D02*
X123776785Y-70102438D01*
X123776785Y-70102438D02*
X123824404Y-70150057D01*
X123824404Y-70150057D02*
X123872023Y-70245295D01*
X123872023Y-70245295D02*
X123872023Y-70340533D01*
X123872023Y-70340533D02*
X123824404Y-70483390D01*
X123824404Y-70483390D02*
X123252976Y-71054819D01*
X123252976Y-71054819D02*
X123872023Y-71054819D01*
X116100595Y-76104819D02*
X116100595Y-76914342D01*
X116100595Y-76914342D02*
X116148214Y-77009580D01*
X116148214Y-77009580D02*
X116195833Y-77057200D01*
X116195833Y-77057200D02*
X116291071Y-77104819D01*
X116291071Y-77104819D02*
X116481547Y-77104819D01*
X116481547Y-77104819D02*
X116576785Y-77057200D01*
X116576785Y-77057200D02*
X116624404Y-77009580D01*
X116624404Y-77009580D02*
X116672023Y-76914342D01*
X116672023Y-76914342D02*
X116672023Y-76104819D01*
X117672023Y-77104819D02*
X117100595Y-77104819D01*
X117386309Y-77104819D02*
X117386309Y-76104819D01*
X117386309Y-76104819D02*
X117291071Y-76247676D01*
X117291071Y-76247676D02*
X117195833Y-76342914D01*
X117195833Y-76342914D02*
X117100595Y-76390533D01*
%TO.C,BT1*%
D11*
X100640000Y-68890000D02*
X100640000Y-70140000D01*
X100940000Y-70500000D02*
X101550000Y-70500000D01*
X100940000Y-71800000D02*
X101550000Y-71800000D01*
X101550000Y-69800000D02*
X101550000Y-73300000D01*
X101550000Y-73300000D02*
X106450000Y-73300000D01*
X101890000Y-68890000D02*
X100640000Y-68890000D01*
X102400000Y-68990000D02*
X102400000Y-69190000D01*
X102700000Y-68990000D02*
X102400000Y-68990000D01*
X102700000Y-69090000D02*
X102400000Y-69090000D01*
X102700000Y-69190000D02*
X102700000Y-68990000D01*
X103500000Y-69190000D02*
X103500000Y-69800000D01*
X103500000Y-69800000D02*
X101550000Y-69800000D01*
X103900000Y-72800000D02*
X104100000Y-72800000D01*
X103900000Y-73300000D02*
X103900000Y-72800000D01*
X104000000Y-73300000D02*
X104000000Y-72800000D01*
X104100000Y-72800000D02*
X104100000Y-73300000D01*
X104500000Y-69800000D02*
X104500000Y-69190000D01*
X106450000Y-69800000D02*
X104500000Y-69800000D01*
X106450000Y-73300000D02*
X106450000Y-69800000D01*
X107060000Y-70500000D02*
X106450000Y-70500000D01*
X107060000Y-71800000D02*
X106450000Y-71800000D01*
X100940000Y-69190000D02*
X107060000Y-69190000D01*
X107060000Y-73910000D01*
X100940000Y-73910000D01*
X100940000Y-69190000D01*
%TO.C,C1*%
X123788748Y-82265000D02*
X124311252Y-82265000D01*
X123788748Y-83735000D02*
X124311252Y-83735000D01*
%TO.C,R2*%
X116860436Y-84265000D02*
X117314564Y-84265000D01*
X116860436Y-85735000D02*
X117314564Y-85735000D01*
%TO.C,Q1*%
X112240000Y-71440000D02*
X113760000Y-71440000D01*
X112240000Y-71490000D02*
X112240000Y-71440000D01*
X112240000Y-73390000D02*
X112240000Y-72610000D01*
X112240000Y-74560000D02*
X112240000Y-74510000D01*
X113760000Y-71440000D02*
X113760000Y-72440000D01*
X113760000Y-73560000D02*
X113760000Y-74560000D01*
X113760000Y-74560000D02*
X112240000Y-74560000D01*
X111700000Y-72620000D02*
X111940000Y-72950000D01*
X111460000Y-72950000D01*
X111700000Y-72620000D01*
G36*
X111940000Y-72950000D02*
G01*
X111460000Y-72950000D01*
X111700000Y-72620000D01*
X111940000Y-72950000D01*
G37*
%TO.C,R1*%
X109772936Y-84265000D02*
X110227064Y-84265000D01*
X109772936Y-85735000D02*
X110227064Y-85735000D01*
%TO.C,J1*%
X127640000Y-70890000D02*
X127640000Y-72140000D01*
X127940000Y-72500000D02*
X128550000Y-72500000D01*
X127940000Y-73800000D02*
X128550000Y-73800000D01*
X128550000Y-71800000D02*
X128550000Y-75300000D01*
X128550000Y-75300000D02*
X133450000Y-75300000D01*
X128890000Y-70890000D02*
X127640000Y-70890000D01*
X129400000Y-70990000D02*
X129400000Y-71190000D01*
X129700000Y-70990000D02*
X129400000Y-70990000D01*
X129700000Y-71090000D02*
X129400000Y-71090000D01*
X129700000Y-71190000D02*
X129700000Y-70990000D01*
X130500000Y-71190000D02*
X130500000Y-71800000D01*
X130500000Y-71800000D02*
X128550000Y-71800000D01*
X130900000Y-74800000D02*
X131100000Y-74800000D01*
X130900000Y-75300000D02*
X130900000Y-74800000D01*
X131000000Y-75300000D02*
X131000000Y-74800000D01*
X131100000Y-74800000D02*
X131100000Y-75300000D01*
X131500000Y-71800000D02*
X131500000Y-71190000D01*
X133450000Y-71800000D02*
X131500000Y-71800000D01*
X133450000Y-75300000D02*
X133450000Y-71800000D01*
X134060000Y-72500000D02*
X133450000Y-72500000D01*
X134060000Y-73800000D02*
X133450000Y-73800000D01*
X127940000Y-71190000D02*
X134060000Y-71190000D01*
X134060000Y-75910000D01*
X127940000Y-75910000D01*
X127940000Y-71190000D01*
%TO.C,Q2*%
X122302500Y-71440000D02*
X123822500Y-71440000D01*
X122302500Y-71490000D02*
X122302500Y-71440000D01*
X122302500Y-73390000D02*
X122302500Y-72610000D01*
X122302500Y-74560000D02*
X122302500Y-74510000D01*
X123822500Y-71440000D02*
X123822500Y-72440000D01*
X123822500Y-73560000D02*
X123822500Y-74560000D01*
X123822500Y-74560000D02*
X122302500Y-74560000D01*
X121762500Y-72620000D02*
X122002500Y-72950000D01*
X121522500Y-72950000D01*
X121762500Y-72620000D01*
G36*
X122002500Y-72950000D02*
G01*
X121522500Y-72950000D01*
X121762500Y-72620000D01*
X122002500Y-72950000D01*
G37*
%TO.C,U1*%
X115952500Y-77490000D02*
X117772500Y-77490000D01*
X115952500Y-77540000D02*
X115952500Y-77490000D01*
X115952500Y-80610000D02*
X115952500Y-80560000D01*
X117772500Y-77490000D02*
X117772500Y-77540000D01*
X117772500Y-80560000D02*
X117772500Y-80610000D01*
X117772500Y-80610000D02*
X115952500Y-80610000D01*
X115412500Y-77540000D02*
X115172500Y-77210000D01*
X115652500Y-77210000D01*
X115412500Y-77540000D01*
G36*
X115412500Y-77540000D02*
G01*
X115172500Y-77210000D01*
X115652500Y-77210000D01*
X115412500Y-77540000D01*
G37*
%TD*%
%LPC*%
D12*
%TO.C,BT1*%
X103000000Y-71000000D03*
D13*
X105000000Y-71000000D03*
%TD*%
D14*
%TO.C,C1*%
X123100000Y-83000000D03*
X125000000Y-83000000D03*
%TD*%
D15*
%TO.C,R2*%
X116175000Y-85000000D03*
X118000000Y-85000000D03*
%TD*%
D16*
%TO.C,Q1*%
X112062500Y-72050000D03*
X112062500Y-73950000D03*
X113937500Y-73000000D03*
%TD*%
D15*
%TO.C,R1*%
X109087500Y-85000000D03*
X110912500Y-85000000D03*
%TD*%
D12*
%TO.C,J1*%
X130000000Y-73000000D03*
D13*
X132000000Y-73000000D03*
%TD*%
D16*
%TO.C,Q2*%
X122125000Y-72050000D03*
X122125000Y-73950000D03*
X124000000Y-73000000D03*
%TD*%
D17*
%TO.C,U1*%
X115725000Y-78100000D03*
X115725000Y-79050000D03*
X115725000Y-80000000D03*
X118000000Y-80000000D03*
X118000000Y-79050000D03*
X118000000Y-78100000D03*
%TD*%
%LPD*%
M02*
